General                          : ChattChitto RG

Complete name                    : Man On Fire 2004 BDRip.mp4
Format                           : MPEG-4
Format profile                   : Base Media
Codec ID                         : isom
File size                        : 2.71 GiB
Duration                         : 2h 26mn
Overall bit rate                 : 2 656 Kbps
Encoded date                     : UTC 2010-05-27 22:45:39

Video
==========
ID                               : 1
Format                           : AVC
Format/Info                      : Advanced Video Codec
Format profile                   : High@L4.0
Format settings, CABAC           : Yes
Format settings, ReFrames        : 4 frames
Codec ID                         : avc1
Codec ID/Info                    : Advanced Video Coding
Duration                         : 2h 26mn
Bit rate mode                    : Variable
Bit rate                         : 2 300 Kbps
Maximum bit rate                 : 19.2 Mbps
Width                            : 1 280 pixels
Height                           : 528 pixels
Display aspect ratio             : 2.40:1
Frame rate mode                  : Constant
Frame rate                       : 23.976 fps
Resolution                       : 8 bits
Colorimetry                      : 4:2:0
Scan type                        : Progressive
Bits/(Pixel*Frame)               : 0.142
Stream size                      : 2.35 GiB (87%)
Writing library                  : x264 core 84 r1400M 20fa784
Encoded date                     : UTC 2010-05-27 18:18:38

Audio
==========
ID                               : 2
Format                           : AAC
Format/Info                      : Advanced Audio Codec
Format version                   : Version 4
Format profile                   : LC
Format settings, SBR             : No
Codec ID                         : 40
Duration                         : 2h 26mn
Bit rate mode                    : Variable
Bit rate                         : 352.8 Kbps
Maximum bit rate                 : 480 Kbps
Channel(s)                       : 6 channels
Channel positions                : Front: L C R, Side: L R, LFE
Sampling rate                    : 48.0 KHz
Stream size                      : 369 MiB (13%)
Encoded date                     : UTC 2010-05-27 22:47:06

Subtitles                        : English SDH | Spanish



----------------------------------------------------
IMDB Link: http://www.imdb.com/title/tt0328107/
----------------------------------------------------



Screen Shots:
==============  
http://img535.imageshack.us/img535/8046/92041231.jpg     
http://img97.imageshack.us/img97/8683/63497734.jpg 
http://img297.imageshack.us/img297/4337/97695272.jpg 
http://img41.imageshack.us/img41/2760/11298658.jpg 
http://img522.imageshack.us/img522/4002/46971594.jpg



Plot:
======
In Mexico City, a government operative/soldier of fortune who has pretty much given up on life, reluctantly agrees to take a job to protect a child whose parents are threatened by a wave of kidnappings. He eventually becomes close to the child and their relationship reawakens and rekindles his spirit. When she is abducted, his fiery rage is unleashed on those he feels responsible, and he stops at nothing to save her.




Release Info:
==============
original name .... : Man On Fire 2004 BDRip.mp4
ripper.............: Recalled2Life (R2L)
encoder............: Recalled2Life (R2L)
video codec........: H264/.MP4
video bitrate......: 2300 Kbps
audio codec........: AAC-LC
aspect ratio.......: 2.40:1
resolution.........: 1280 x 528
genre..............: Action | Crime | Drama | Thriller
runtime............: 2h 26mn
language...........: English
rating.............: R
subtitles..........: English SDH | Spanish
sample.............: Yes [11.7 MB]
2ch Audio..........: 2ch Audio for XBox Viewers
Compatibility .....: XBox 360 | PS3 | WD Live 



Source:
========
Man On Fire Blu-Ray 1080p MPEG-4 AVC/DTS-HD 5.1 [37.4 GB]


Notes:
=======
ChattChitto RG Encourages Burning this Film with ConvertXtoDVD.
XBox 360 | PS3 | WD Live - Compatible
Enhanced and Filtered for your viewing pleasure ;)